STARTFONT 2.1
FONT -Adobe-ITC Bookman-Demi-I-Normal--14-100-100-100-P-89-ISO8859-1
SIZE 10 100 100
FONTBOUNDINGBOX 22 15 -3 -4

STARTPROPERTIES 26
_DEC_DEVICE_FONTNAMES "PS=Bookman-DemiItalic"
FONTNAME_REGISTRY ""
FAMILY_NAME "ITC Bookman"
FOUNDRY "Adobe"
WEIGHT_NAME "Demi"
SLANT "I"
SETWIDTH_NAME "Normal"
ADD_STYLE_NAME ""
PIXEL_SIZE 14
POINT_SIZE 100
RESOLUTION_X 100
RESOLUTION_Y 100
SPACING "P"
AVERAGE_WIDTH 89
CHARSET_REGISTRY "ISO8859"
CHARSET_ENCODING "1"
CHARSET_COLLECTIONS "ASCII ISO8859-1 ADOBE-STANDARD"
FULL_NAME "ITC Bookman Demi Italic"
COPYRIGHT "Copyright (c) 1991 Adobe Systems, Inc."
CAP_HEIGHT 10
X_HEIGHT 7
WEIGHT 10
QUAD_WIDTH 10
DEFAULT_CHAR 0
FONT_DESCENT 4
FONT_ASCENT 11
ENDPROPERTIES

CHARS 190

STARTCHAR space
ENCODING 32
SWIDTH 340 0
DWIDTH 5 0
BBX 1 1 0 0
BITMAP
00
ENDCHAR

STARTCHAR exclam
ENCODING 33
SWIDTH 320 0
DWIDTH 5 0
BBX 4 10 1 0
BITMAP
30
30
70
70
60
60
40
00
C0
C0
ENDCHAR

STARTCHAR quotedbl
ENCODING 34
SWIDTH 380 0
DWIDTH 6 0
BBX 5 5 1 5
BITMAP
D8
D8
D8
D8
D8
ENDCHAR

STARTCHAR numbersign
ENCODING 35
SWIDTH 600 0
DWIDTH 10 0
BBX 8 10 1 0
BITMAP
12
12
7F
7F
24
24
FE
FE
48
48
ENDCHAR

STARTCHAR dollar
ENCODING 36
SWIDTH 680 0
DWIDTH 10 0
BBX 8 13 1 -2
BITMAP
04
04
3E
63
71
3C
0E
07
83
C6
7C
10
10
ENDCHAR

STARTCHAR percent
ENCODING 37
SWIDTH 880 0
DWIDTH 13 0
BBX 11 10 1 0
BITMAP
3840
6CC0
CD80
DB00
7600
0DC0
1B60
3660
66C0
4380
ENDCHAR

STARTCHAR ampersand
ENCODING 38
SWIDTH 980 0
DWIDTH 14 0
BBX 13 10 1 0
BITMAP
1E00
3360
3360
1E60
3C40
6E80
C718
C718
EDB0
78E0
ENDCHAR

STARTCHAR quoteright
ENCODING 39
SWIDTH 320 0
DWIDTH 5 0
BBX 3 4 2 6
BITMAP
60
60
20
C0
ENDCHAR

STARTCHAR parenleft
ENCODING 40
SWIDTH 260 0
DWIDTH 4 0
BBX 5 13 0 -3
BITMAP
18
30
30
60
60
60
C0
C0
C0
C0
C0
C0
60
ENDCHAR

STARTCHAR parenright
ENCODING 41
SWIDTH 260 0
DWIDTH 4 0
BBX 5 13 -2 -3
BITMAP
30
18
18
18
18
18
18
30
30
30
60
60
C0
ENDCHAR

STARTCHAR asterisk
ENCODING 42
SWIDTH 460 0
DWIDTH 7 0
BBX 5 5 1 5
BITMAP
20
F8
70
F8
20
ENDCHAR

STARTCHAR plus
ENCODING 43
SWIDTH 600 0
DWIDTH 9 0
BBX 7 7 1 0
BITMAP
10
10
FE
FE
10
10
10
ENDCHAR

STARTCHAR comma
ENCODING 44
SWIDTH 340 0
DWIDTH 5 0
BBX 3 4 0 -2
BITMAP
60
60
20
C0
ENDCHAR

STARTCHAR minus
ENCODING 45
SWIDTH 600 0
DWIDTH 9 0
BBX 7 2 1 3
BITMAP
FE
FE
ENDCHAR

STARTCHAR period
ENCODING 46
SWIDTH 340 0
DWIDTH 5 0
BBX 2 2 1 0
BITMAP
C0
C0
ENDCHAR

STARTCHAR slash
ENCODING 47
SWIDTH 360 0
DWIDTH 5 0
BBX 5 12 0 -2
BITMAP
08
08
18
18
30
30
60
60
C0
C0
80
80
ENDCHAR

STARTCHAR zero
ENCODING 48
SWIDTH 680 0
DWIDTH 10 0
BBX 8 10 1 0
BITMAP
1E
33
63
63
C3
C3
C6
C6
CC
78
ENDCHAR

STARTCHAR one
ENCODING 49
SWIDTH 680 0
DWIDTH 10 0
BBX 6 10 2 0
BITMAP
0C
7C
18
18
18
18
30
30
30
F8
ENDCHAR

STARTCHAR two
ENCODING 50
SWIDTH 680 0
DWIDTH 10 0
BBX 8 10 1 0
BITMAP
3E
77
63
63
06
0C
38
61
FF
FF
ENDCHAR

STARTCHAR three
ENCODING 51
SWIDTH 680 0
DWIDTH 10 0
BBX 8 10 1 0
BITMAP
3E
67
63
07
1E
0C
C6
C6
CE
7C
ENDCHAR

STARTCHAR four
ENCODING 52
SWIDTH 680 0
DWIDTH 10 0
BBX 8 10 1 0
BITMAP
07
0B
13
26
46
C6
FF
FF
0C
0C
ENDCHAR

STARTCHAR five
ENCODING 53
SWIDTH 680 0
DWIDTH 10 0
BBX 8 10 1 0
BITMAP
3F
3E
60
6E
7F
63
03
C3
C6
7C
ENDCHAR

STARTCHAR six
ENCODING 54
SWIDTH 680 0
DWIDTH 10 0
BBX 8 10 1 0
BITMAP
1E
33
63
60
FC
E6
C6
C6
CC
78
ENDCHAR

STARTCHAR seven
ENCODING 55
SWIDTH 680 0
DWIDTH 10 0
BBX 8 10 1 0
BITMAP
7F
FF
86
04
0C
18
30
30
70
70
ENDCHAR

STARTCHAR eight
ENCODING 56
SWIDTH 680 0
DWIDTH 10 0
BBX 9 10 1 0
BITMAP
1F00
3380
6180
7300
3E00
7E00
C700
C300
C600
7C00
ENDCHAR

STARTCHAR nine
ENCODING 57
SWIDTH 680 0
DWIDTH 10 0
BBX 8 10 1 0
BITMAP
1E
33
63
63
67
3F
06
C6
CC
78
ENDCHAR

STARTCHAR colon
ENCODING 58
SWIDTH 340 0
DWIDTH 5 0
BBX 3 7 1 0
BITMAP
60
60
00
00
00
C0
C0
ENDCHAR

STARTCHAR semicolon
ENCODING 59
SWIDTH 340 0
DWIDTH 5 0
BBX 4 9 0 -2
BITMAP
30
30
00
00
00
60
60
20
C0
ENDCHAR

STARTCHAR less
ENCODING 60
SWIDTH 620 0
DWIDTH 9 0
BBX 7 7 1 0
BITMAP
0E
3C
70
E0
70
3C
0E
ENDCHAR

STARTCHAR equal
ENCODING 61
SWIDTH 600 0
DWIDTH 9 0
BBX 7 5 1 1
BITMAP
FE
FE
00
FE
FE
ENDCHAR

STARTCHAR greater
ENCODING 62
SWIDTH 620 0
DWIDTH 9 0
BBX 7 7 1 0
BITMAP
E0
78
1C
0E
1C
78
E0
ENDCHAR

STARTCHAR question
ENCODING 63
SWIDTH 620 0
DWIDTH 9 0
BBX 6 10 2 0
BITMAP
78
9C
CC
CC
18
30
60
00
C0
C0
ENDCHAR

STARTCHAR at
ENCODING 64
SWIDTH 780 0
DWIDTH 11 0
BBX 11 12 0 -2
BITMAP
0780
1CC0
3060
6720
4DA0
D920
D920
DBC0
CE80
6000
30C0
0F80
ENDCHAR

STARTCHAR A
ENCODING 65
SWIDTH 720 0
DWIDTH 11 0
BBX 11 10 -1 0
BITMAP
0180
0380
0780
0D80
0980
19C0
3FC0
60C0
60C0
F1E0
ENDCHAR

STARTCHAR B
ENCODING 66
SWIDTH 720 0
DWIDTH 10 0
BBX 10 10 0 0
BITMAP
3F80
19C0
38C0
3180
3F00
3380
7180
6180
6380
FF00
ENDCHAR

STARTCHAR C
ENCODING 67
SWIDTH 700 0
DWIDTH 10 0
BBX 10 10 0 0
BITMAP
0F40
39C0
60C0
6040
C000
C000
C000
C000
6180
3E00
ENDCHAR

STARTCHAR D
ENCODING 68
SWIDTH 760 0
DWIDTH 11 0
BBX 11 10 0 0
BITMAP
3FC0
1CE0
1860
3860
3060
30E0
70C0
61C0
6380
FF00
ENDCHAR

STARTCHAR E
ENCODING 69
SWIDTH 720 0
DWIDTH 10 0
BBX 10 10 0 0
BITMAP
3FC0
18C0
1840
3940
3F00
3200
7040
60C0
6180
FF80
ENDCHAR

STARTCHAR F
ENCODING 70
SWIDTH 660 0
DWIDTH 10 0
BBX 10 10 0 0
BITMAP
3FC0
18C0
1840
3940
3F00
3200
7000
6000
6000
F000
ENDCHAR

STARTCHAR G
ENCODING 71
SWIDTH 760 0
DWIDTH 11 0
BBX 11 10 0 0
BITMAP
0FC0
38C0
6040
6040
E000
C7E0
C180
C380
6700
3B00
ENDCHAR

STARTCHAR H
ENCODING 72
SWIDTH 800 0
DWIDTH 12 0
BBX 12 10 0 0
BITMAP
3CF0
1860
1860
38E0
3FC0
30C0
71C0
6180
6180
F3C0
ENDCHAR

STARTCHAR I
ENCODING 73
SWIDTH 380 0
DWIDTH 6 0
BBX 6 10 0 0
BITMAP
3C
18
18
38
30
30
70
60
60
F0
ENDCHAR

STARTCHAR J
ENCODING 74
SWIDTH 620 0
DWIDTH 9 0
BBX 10 10 0 0
BITMAP
03C0
0180
0180
0380
0300
0300
6700
E600
C600
7C00
ENDCHAR

STARTCHAR K
ENCODING 75
SWIDTH 780 0
DWIDTH 11 0
BBX 12 10 0 0
BITMAP
3DF0
18C0
1980
3B00
3E00
3700
7300
6380
61C0
F3E0
ENDCHAR

STARTCHAR L
ENCODING 76
SWIDTH 640 0
DWIDTH 10 0
BBX 10 10 0 0
BITMAP
3E00
1800
1800
3800
3000
3000
7040
60C0
6180
FF80
ENDCHAR

STARTCHAR M
ENCODING 77
SWIDTH 860 0
DWIDTH 13 0
BBX 15 10 -1 0
BITMAP
1E1E
0E3C
1E2C
165C
1658
3698
2738
2730
6630
F678
ENDCHAR

STARTCHAR N
ENCODING 78
SWIDTH 740 0
DWIDTH 11 0
BBX 12 10 0 0
BITMAP
3CF0
1C60
1E40
16C0
3680
2680
2380
6300
6300
F300
ENDCHAR

STARTCHAR O
ENCODING 79
SWIDTH 760 0
DWIDTH 11 0
BBX 11 10 0 0
BITMAP
0F80
38C0
6060
6060
E060
C0E0
C0C0
C0C0
6380
3E00
ENDCHAR

STARTCHAR P
ENCODING 80
SWIDTH 640 0
DWIDTH 9 0
BBX 9 10 0 0
BITMAP
3F00
1980
3980
3180
3300
3E00
7000
6000
6000
F000
ENDCHAR

STARTCHAR Q
ENCODING 81
SWIDTH 760 0
DWIDTH 11 0
BBX 11 13 0 -3
BITMAP
0F80
38C0
6060
6060
E060
C0E0
C0C0
CFC0
7380
3F80
0180
6380
3F00
ENDCHAR

STARTCHAR R
ENCODING 82
SWIDTH 740 0
DWIDTH 11 0
BBX 10 10 0 0
BITMAP
3F80
18C0
18C0
39C0
3F80
3700
7300
6380
6180
F1C0
ENDCHAR

STARTCHAR S
ENCODING 83
SWIDTH 700 0
DWIDTH 10 0
BBX 9 10 0 0
BITMAP
3E80
7380
6180
7080
3C00
0F00
8380
C180
E380
BF00
ENDCHAR

STARTCHAR T
ENCODING 84
SWIDTH 700 0
DWIDTH 10 0
BBX 10 10 1 0
BITMAP
FFC0
CCC0
8C40
1C00
1800
1800
3800
3000
7000
F800
ENDCHAR

STARTCHAR U
ENCODING 85
SWIDTH 740 0
DWIDTH 11 0
BBX 11 10 1 0
BITMAP
79E0
30C0
3180
7180
6180
E300
C300
C300
E600
7C00
ENDCHAR

STARTCHAR V
ENCODING 86
SWIDTH 660 0
DWIDTH 10 0
BBX 10 10 1 0
BITMAP
F3C0
6180
6100
6300
6200
3600
3400
3C00
1800
1800
ENDCHAR

STARTCHAR W
ENCODING 87
SWIDTH 1000 0
DWIDTH 14 0
BBX 14 10 1 0
BITMAP
F7BC
6318
6310
6730
6F20
6B60
7BC0
39C0
3180
3180
ENDCHAR

STARTCHAR X
ENCODING 88
SWIDTH 740 0
DWIDTH 12 0
BBX 12 10 0 0
BITMAP
7CF0
3860
1CC0
0F80
0700
0F00
1B80
31C0
60E0
F1F0
ENDCHAR

STARTCHAR Y
ENCODING 89
SWIDTH 660 0
DWIDTH 10 0
BBX 10 10 1 0
BITMAP
F3C0
6180
7300
3600
3C00
1800
1800
1800
3800
7C00
ENDCHAR

STARTCHAR Z
ENCODING 90
SWIDTH 680 0
DWIDTH 10 0
BBX 10 10 0 0
BITMAP
3FC0
71C0
6380
4700
0E00
1C00
3880
7180
E380
FF00
ENDCHAR

STARTCHAR bracketleft
ENCODING 91
SWIDTH 260 0
DWIDTH 4 0
BBX 6 13 -1 -3
BITMAP
1C
18
18
30
30
30
60
60
60
C0
C0
C0
E0
ENDCHAR

STARTCHAR backslash
ENCODING 92
SWIDTH 580 0
DWIDTH 8 0
BBX 4 10 2 0
BITMAP
80
80
C0
C0
60
60
30
30
10
10
ENDCHAR

STARTCHAR bracketright
ENCODING 93
SWIDTH 260 0
DWIDTH 4 0
BBX 6 13 -1 -3
BITMAP
1C
0C
0C
18
18
18
30
30
30
60
60
60
E0
ENDCHAR

STARTCHAR asciicircum
ENCODING 94
SWIDTH 620 0
DWIDTH 9 0
BBX 7 6 1 4
BITMAP
10
38
6C
6C
C6
C6
ENDCHAR

STARTCHAR underscore
ENCODING 95
SWIDTH 500 0
DWIDTH 7 0
BBX 7 1 0 -2
BITMAP
FE
ENDCHAR

STARTCHAR quoteleft
ENCODING 96
SWIDTH 320 0
DWIDTH 5 0
BBX 3 4 2 6
BITMAP
60
80
C0
C0
ENDCHAR

STARTCHAR a
ENCODING 97
SWIDTH 680 0
DWIDTH 10 0
BBX 9 7 1 0
BITMAP
3D00
7700
E300
C600
C600
EE80
7700
ENDCHAR

STARTCHAR b
ENCODING 98
SWIDTH 600 0
DWIDTH 9 0
BBX 8 10 1 0
BITMAP
18
78
30
3E
33
73
63
E7
EE
DC
ENDCHAR

STARTCHAR c
ENCODING 99
SWIDTH 560 0
DWIDTH 8 0
BBX 7 7 1 0
BITMAP
3C
76
E6
C0
C0
C4
78
ENDCHAR

STARTCHAR d
ENCODING 100
SWIDTH 680 0
DWIDTH 10 0
BBX 9 10 1 0
BITMAP
0180
0780
0300
3B00
7700
E600
C600
CE00
DE80
7700
ENDCHAR

STARTCHAR e
ENCODING 101
SWIDTH 560 0
DWIDTH 8 0
BBX 7 7 1 0
BITMAP
3C
76
E6
FC
C0
C6
7C
ENDCHAR

STARTCHAR f
ENCODING 102
SWIDTH 420 0
DWIDTH 6 0
BBX 10 14 -2 -4
BITMAP
01C0
0340
0300
0F80
0600
0E00
0C00
0C00
0C00
1C00
1800
1800
D800
F000
ENDCHAR

STARTCHAR g
ENCODING 103
SWIDTH 620 0
DWIDTH 9 0
BBX 8 11 1 -4
BITMAP
3B
77
E3
C6
C6
EE
76
0C
0C
CC
F8
ENDCHAR

STARTCHAR h
ENCODING 104
SWIDTH 700 0
DWIDTH 10 0
BBX 9 10 1 0
BITMAP
1800
7800
3000
3700
3980
7180
6300
E300
C680
C700
ENDCHAR

STARTCHAR i
ENCODING 105
SWIDTH 380 0
DWIDTH 5 0
BBX 5 10 1 0
BITMAP
18
18
00
30
F0
60
60
E0
D0
E0
ENDCHAR

STARTCHAR j
ENCODING 106
SWIDTH 320 0
DWIDTH 5 0
BBX 7 14 -1 -4
BITMAP
06
06
00
0C
3C
18
18
18
18
30
30
30
B0
E0
ENDCHAR

STARTCHAR k
ENCODING 107
SWIDTH 700 0
DWIDTH 10 0
BBX 9 10 1 0
BITMAP
1800
7800
3000
3300
6700
6C00
7C00
E600
C680
C300
ENDCHAR

STARTCHAR l
ENCODING 108
SWIDTH 380 0
DWIDTH 5 0
BBX 5 10 1 0
BITMAP
18
78
30
30
70
60
E0
C0
D0
60
ENDCHAR

STARTCHAR m
ENCODING 109
SWIDTH 960 0
DWIDTH 15 0
BBX 14 7 1 0
BITMAP
3738
F9CC
739C
6318
E730
C634
C638
ENDCHAR

STARTCHAR n
ENCODING 110
SWIDTH 680 0
DWIDTH 10 0
BBX 9 7 1 0
BITMAP
3700
F980
7380
6300
E600
C680
C700
ENDCHAR

STARTCHAR o
ENCODING 111
SWIDTH 600 0
DWIDTH 9 0
BBX 8 7 1 0
BITMAP
3E
73
E3
C3
C7
CE
7C
ENDCHAR

STARTCHAR p
ENCODING 112
SWIDTH 660 0
DWIDTH 9 0
BBX 10 11 -1 -4
BITMAP
1B80
3EC0
18C0
18C0
31C0
3B80
3700
3000
6000
6000
F000
ENDCHAR

STARTCHAR q
ENCODING 113
SWIDTH 620 0
DWIDTH 9 0
BBX 9 11 1 -4
BITMAP
3D80
7700
E300
C600
C600
CE00
7C00
0C00
1800
1800
3C00
ENDCHAR

STARTCHAR r
ENCODING 114
SWIDTH 500 0
DWIDTH 7 0
BBX 7 7 1 0
BITMAP
2C
FE
76
60
E0
C0
C0
ENDCHAR

STARTCHAR s
ENCODING 115
SWIDTH 540 0
DWIDTH 8 0
BBX 7 7 1 0
BITMAP
3E
66
70
38
1C
CC
F8
ENDCHAR

STARTCHAR t
ENCODING 116
SWIDTH 440 0
DWIDTH 6 0
BBX 6 9 1 0
BITMAP
10
30
FC
70
60
60
C0
C8
F0
ENDCHAR

STARTCHAR u
ENCODING 117
SWIDTH 680 0
DWIDTH 10 0
BBX 9 7 1 0
BITMAP
3180
F180
6300
6300
E600
CE80
F700
ENDCHAR

STARTCHAR v
ENCODING 118
SWIDTH 540 0
DWIDTH 8 0
BBX 7 7 1 0
BITMAP
66
E6
62
66
6C
78
30
ENDCHAR

STARTCHAR w
ENCODING 119
SWIDTH 860 0
DWIDTH 12 0
BBX 11 7 1 0
BITMAP
6660
E660
6620
6660
6EC0
7B80
3300
ENDCHAR

STARTCHAR x
ENCODING 120
SWIDTH 620 0
DWIDTH 8 0
BBX 7 7 1 0
BITMAP
66
EE
38
30
78
CE
CC
ENDCHAR

STARTCHAR y
ENCODING 121
SWIDTH 600 0
DWIDTH 9 0
BBX 8 11 1 -4
BITMAP
33
F3
63
66
E6
CE
F6
0C
0C
CC
F8
ENDCHAR

STARTCHAR z
ENCODING 122
SWIDTH 560 0
DWIDTH 8 0
BBX 7 7 1 0
BITMAP
7E
CE
98
30
62
E6
FC
ENDCHAR

STARTCHAR braceleft
ENCODING 123
SWIDTH 300 0
DWIDTH 4 0
BBX 8 13 -1 -3
BITMAP
07
0C
18
18
18
30
C0
60
60
60
C0
C0
70
ENDCHAR

STARTCHAR bar
ENCODING 124
SWIDTH 620 0
DWIDTH 9 0
BBX 2 10 4 0
BITMAP
C0
C0
C0
C0
C0
C0
C0
C0
C0
C0
ENDCHAR

STARTCHAR braceright
ENCODING 125
SWIDTH 300 0
DWIDTH 4 0
BBX 8 13 -3 -3
BITMAP
0E
03
03
06
06
06
03
0C
18
18
18
30
E0
ENDCHAR

STARTCHAR asciitilde
ENCODING 126
SWIDTH 620 0
DWIDTH 9 0
BBX 7 2 1 3
BITMAP
76
DC
ENDCHAR

STARTCHAR exclamdown
ENCODING 161
SWIDTH 320 0
DWIDTH 5 0
BBX 4 10 1 -3
BITMAP
30
30
00
20
60
60
E0
E0
C0
C0
ENDCHAR

STARTCHAR cent
ENCODING 162
SWIDTH 680 0
DWIDTH 10 0
BBX 7 10 1 0
BITMAP
08
08
3C
66
C6
C0
E4
78
20
20
ENDCHAR

STARTCHAR sterling
ENCODING 163
SWIDTH 680 0
DWIDTH 10 0
BBX 10 10 0 0
BITMAP
0780
0CC0
18C0
1800
3E00
1800
1800
7180
9C80
E700
ENDCHAR

STARTCHAR currency
ENCODING 164
SWIDTH 680 0
DWIDTH 10 0
BBX 6 6 1 2
BITMAP
CC
FC
48
48
FC
CC
ENDCHAR

STARTCHAR yen
ENCODING 165
SWIDTH 680 0
DWIDTH 10 0
BBX 10 10 0 0
BITMAP
F3C0
6180
3300
3600
1C00
7E00
1800
7E00
1800
3C00
ENDCHAR

STARTCHAR brokenbar
ENCODING 166
SWIDTH 620 0
DWIDTH 9 0
BBX 2 10 4 0
BITMAP
C0
C0
C0
00
00
00
C0
C0
C0
C0
ENDCHAR

STARTCHAR section
ENCODING 167
SWIDTH 620 0
DWIDTH 9 0
BBX 9 12 0 -2
BITMAP
1F00
3180
3180
3800
7E00
6700
7300
3F00
0E00
C600
CC00
7800
ENDCHAR

STARTCHAR dieresis
ENCODING 168
SWIDTH 520 0
DWIDTH 8 0
BBX 5 1 3 9
BITMAP
D8
ENDCHAR

STARTCHAR copyright
ENCODING 169
SWIDTH 780 0
DWIDTH 12 0
BBX 10 10 1 0
BITMAP
3F00
6180
CEC0
9A40
9040
9040
9A40
CCC0
6180
3F00
ENDCHAR

STARTCHAR ordfeminine
ENCODING 170
SWIDTH 440 0
DWIDTH 6 0
BBX 5 6 1 4
BITMAP
38
68
50
68
00
F0
ENDCHAR

STARTCHAR guillemotleft
ENCODING 171
SWIDTH 380 0
DWIDTH 7 0
BBX 7 5 0 1
BITMAP
36
6C
D8
D8
6C
ENDCHAR

STARTCHAR logicalnot
ENCODING 172
SWIDTH 620 0
DWIDTH 9 0
BBX 7 5 1 1
BITMAP
FE
FE
02
02
02
ENDCHAR

STARTCHAR hyphen
ENCODING 173
SWIDTH 280 0
DWIDTH 4 0
BBX 3 2 0 3
BITMAP
E0
E0
ENDCHAR

STARTCHAR registered
ENCODING 174
SWIDTH 780 0
DWIDTH 12 0
BBX 10 10 1 0
BITMAP
3F00
6180
DCC0
9640
9240
9C40
9640
D2C0
6180
3F00
ENDCHAR

STARTCHAR macron
ENCODING 175
SWIDTH 480 0
DWIDTH 7 0
BBX 4 1 3 8
BITMAP
F0
ENDCHAR

STARTCHAR degree
ENCODING 176
SWIDTH 400 0
DWIDTH 6 0
BBX 4 4 1 6
BITMAP
60
90
90
60
ENDCHAR

STARTCHAR plusminus
ENCODING 177
SWIDTH 600 0
DWIDTH 9 0
BBX 7 7 1 0
BITMAP
10
FE
FE
10
00
FE
FE
ENDCHAR

STARTCHAR twosuperior
ENCODING 178
SWIDTH 680 0
DWIDTH 6 0
BBX 5 6 1 4
BITMAP
70
D8
18
30
60
F8
ENDCHAR

STARTCHAR threesuperior
ENCODING 179
SWIDTH 680 0
DWIDTH 6 0
BBX 5 6 1 4
BITMAP
78
98
30
18
98
F0
ENDCHAR

STARTCHAR acute
ENCODING 180
SWIDTH 340 0
DWIDTH 5 0
BBX 4 3 1 7
BITMAP
30
60
80
ENDCHAR

STARTCHAR mu
ENCODING 181
SWIDTH 680 0
DWIDTH 10 0
BBX 10 11 0 -4
BITMAP
18C0
78C0
3180
3180
7300
6740
7B80
6000
C000
C000
C000
ENDCHAR

STARTCHAR paragraph
ENCODING 182
SWIDTH 680 0
DWIDTH 10 0
BBX 9 12 1 -2
BITMAP
7F80
ED80
CD00
C900
DB00
7A00
3200
3600
3600
2400
6C00
FE00
ENDCHAR

STARTCHAR periodcentered
ENCODING 183
SWIDTH 340 0
DWIDTH 5 0
BBX 2 2 1 3
BITMAP
C0
C0
ENDCHAR

STARTCHAR cedilla
ENCODING 184
SWIDTH 360 0
DWIDTH 5 0
BBX 5 3 -3 -3
BITMAP
10
98
70
ENDCHAR

STARTCHAR onesuperior
ENCODING 185
SWIDTH 680 0
DWIDTH 6 0
BBX 4 6 1 4
BITMAP
30
70
30
60
60
F0
ENDCHAR

STARTCHAR ordmasculine
ENCODING 186
SWIDTH 440 0
DWIDTH 6 0
BBX 5 6 1 4
BITMAP
38
68
58
70
00
F0
ENDCHAR

STARTCHAR guillemotright
ENCODING 187
SWIDTH 380 0
DWIDTH 7 0
BBX 7 5 0 1
BITMAP
6C
36
36
6C
D8
ENDCHAR

STARTCHAR onequarter
ENCODING 188
SWIDTH 120 0
DWIDTH 15 0
BBX 12 10 2 0
BITMAP
3080
7180
3100
6200
6260
F4E0
0560
0A40
1BF0
10C0
ENDCHAR

STARTCHAR onehalf
ENCODING 189
SWIDTH 120 0
DWIDTH 15 0
BBX 12 10 2 0
BITMAP
3080
7180
3100
6200
62E0
F5B0
0430
0860
18C0
11F0
ENDCHAR

STARTCHAR threequarters
ENCODING 190
SWIDTH 120 0
DWIDTH 15 0
BBX 12 10 2 0
BITMAP
7880
9980
3100
1A00
9A60
F4E0
0560
0A40
1BF0
10C0
ENDCHAR

STARTCHAR questiondown
ENCODING 191
SWIDTH 620 0
DWIDTH 9 0
BBX 6 10 1 -3
BITMAP
0C
0C
00
18
30
60
CC
CC
E4
78
ENDCHAR

STARTCHAR Agrave
ENCODING 192
SWIDTH 720 0
DWIDTH 11 0
BBX 11 11 0 0
BITMAP
0600
0300
0080
0000
0300
0700
0980
1F80
30C0
60C0
F1E0
ENDCHAR

STARTCHAR Aacute
ENCODING 193
SWIDTH 720 0
DWIDTH 11 0
BBX 11 11 0 0
BITMAP
00C0
0180
0200
0000
0300
0700
0980
1F80
30C0
60C0
F1E0
ENDCHAR

STARTCHAR Acircumflex
ENCODING 194
SWIDTH 720 0
DWIDTH 11 0
BBX 11 11 0 0
BITMAP
0100
0380
0440
0000
0300
0700
0980
1F80
30C0
60C0
F1E0
ENDCHAR

STARTCHAR Atilde
ENCODING 195
SWIDTH 720 0
DWIDTH 11 0
BBX 11 10 0 0
BITMAP
0340
0580
0000
0300
0700
0980
1F80
30C0
60C0
F1E0
ENDCHAR

STARTCHAR Adieresis
ENCODING 196
SWIDTH 720 0
DWIDTH 11 0
BBX 11 9 0 0
BITMAP
06C0
0000
0300
0700
0980
1F80
30C0
60C0
F1E0
ENDCHAR

STARTCHAR Aring
ENCODING 197
SWIDTH 720 0
DWIDTH 11 0
BBX 11 11 0 0
BITMAP
0300
0480
0480
0300
0300
0700
0980
1F80
30C0
60C0
F1E0
ENDCHAR

STARTCHAR AE
ENCODING 198
SWIDTH 1140 0
DWIDTH 16 0
BBX 16 10 -1 0
BITMAP
01FF
0363
0661
0CE5
0CFC
18C8
3FC1
6183
6186
F3FE
ENDCHAR

STARTCHAR Ccedilla
ENCODING 199
SWIDTH 700 0
DWIDTH 10 0
BBX 10 13 0 -3
BITMAP
0F40
39C0
60C0
6040
C000
C000
C000
C000
6180
3E00
0800
4C00
3800
ENDCHAR

STARTCHAR Egrave
ENCODING 200
SWIDTH 720 0
DWIDTH 10 0
BBX 10 11 0 0
BITMAP
0C00
0600
0100
0000
3FC0
18C0
3240
3E00
64C0
6180
FF80
ENDCHAR

STARTCHAR Eacute
ENCODING 201
SWIDTH 720 0
DWIDTH 10 0
BBX 10 11 0 0
BITMAP
0300
0600
0800
0000
3FC0
18C0
3240
3E00
64C0
6180
FF80
ENDCHAR

STARTCHAR Ecircumflex
ENCODING 202
SWIDTH 720 0
DWIDTH 10 0
BBX 10 11 0 0
BITMAP
0200
0700
0880
0000
3FC0
18C0
3240
3E00
64C0
6180
FF80
ENDCHAR

STARTCHAR Edieresis
ENCODING 203
SWIDTH 720 0
DWIDTH 10 0
BBX 10 9 0 0
BITMAP
0D80
0000
3FC0
18C0
3240
3E00
64C0
6180
FF80
ENDCHAR

STARTCHAR Igrave
ENCODING 204
SWIDTH 380 0
DWIDTH 6 0
BBX 6 11 0 0
BITMAP
30
18
04
00
3C
18
30
30
60
60
F0
ENDCHAR

STARTCHAR Iacute
ENCODING 205
SWIDTH 380 0
DWIDTH 6 0
BBX 7 11 0 0
BITMAP
06
0C
10
00
3C
18
30
30
60
60
F0
ENDCHAR

STARTCHAR Icircumflex
ENCODING 206
SWIDTH 380 0
DWIDTH 6 0
BBX 7 11 0 0
BITMAP
08
1C
22
00
3C
18
30
30
60
60
F0
ENDCHAR

STARTCHAR Idieresis
ENCODING 207
SWIDTH 380 0
DWIDTH 6 0
BBX 7 9 0 0
BITMAP
36
00
3C
18
30
30
60
60
F0
ENDCHAR

STARTCHAR Eth
ENCODING 208
SWIDTH 760 0
DWIDTH 11 0
BBX 11 10 0 0
BITMAP
3FC0
1CE0
1860
1860
7E60
30E0
30C0
61C0
6380
FF00
ENDCHAR

STARTCHAR Ntilde
ENCODING 209
SWIDTH 740 0
DWIDTH 11 0
BBX 13 10 0 0
BITMAP
01A0
02C0
0000
3C78
1C20
1620
2640
2340
6380
F180
ENDCHAR

STARTCHAR Ograve
ENCODING 210
SWIDTH 760 0
DWIDTH 11 0
BBX 11 11 0 0
BITMAP
0600
0300
0080
0000
0FC0
38E0
6060
C060
C0C0
E380
7E00
ENDCHAR

STARTCHAR Oacute
ENCODING 211
SWIDTH 760 0
DWIDTH 11 0
BBX 11 11 0 0
BITMAP
00C0
0180
0200
0000
0FC0
38E0
6060
C060
C0C0
E380
7E00
ENDCHAR

STARTCHAR Ocircumflex
ENCODING 212
SWIDTH 760 0
DWIDTH 11 0
BBX 11 11 0 0
BITMAP
0100
0380
0440
0000
0FC0
38E0
6060
C060
C0C0
E380
7E00
ENDCHAR

STARTCHAR Otilde
ENCODING 213
SWIDTH 760 0
DWIDTH 11 0
BBX 11 10 0 0
BITMAP
0340
0580
0000
0FC0
38E0
6060
C060
C0C0
E380
7E00
ENDCHAR

STARTCHAR Odieresis
ENCODING 214
SWIDTH 760 0
DWIDTH 11 0
BBX 11 9 0 0
BITMAP
06C0
0000
0FC0
38E0
6060
C060
C0C0
E380
7E00
ENDCHAR

STARTCHAR multiply
ENCODING 215
SWIDTH 600 0
DWIDTH 9 0
BBX 7 7 1 0
BITMAP
C6
6C
38
10
38
6C
C6
ENDCHAR

STARTCHAR Oslash
ENCODING 216
SWIDTH 760 0
DWIDTH 11 0
BBX 11 12 0 -1
BITMAP
0060
0FC0
38E0
71E0
6360
C660
C460
CCC0
D9C0
7380
3E00
6000
ENDCHAR

STARTCHAR Ugrave
ENCODING 217
SWIDTH 740 0
DWIDTH 11 0
BBX 11 11 1 0
BITMAP
0C00
0600
0100
0000
79E0
30C0
6180
6180
C300
C300
7E00
ENDCHAR

STARTCHAR Uacute
ENCODING 218
SWIDTH 740 0
DWIDTH 11 0
BBX 11 11 1 0
BITMAP
0180
0300
0400
0000
79E0
30C0
6180
6180
C300
C300
7E00
ENDCHAR

STARTCHAR Ucircumflex
ENCODING 219
SWIDTH 740 0
DWIDTH 11 0
BBX 11 11 1 0
BITMAP
0200
0700
0880
0000
79E0
30C0
6180
6180
C300
C300
7E00
ENDCHAR

STARTCHAR Udieresis
ENCODING 220
SWIDTH 740 0
DWIDTH 11 0
BBX 11 9 1 0
BITMAP
0D80
0000
79E0
30C0
6180
6180
C300
C300
7E00
ENDCHAR

STARTCHAR Yacute
ENCODING 221
SWIDTH 660 0
DWIDTH 10 0
BBX 10 11 1 0
BITMAP
0300
0600
0800
0000
F3C0
6300
3600
3C00
1800
1800
7C00
ENDCHAR

STARTCHAR Thorn
ENCODING 222
SWIDTH 640 0
DWIDTH 9 0
BBX 9 10 0 0
BITMAP
3C00
1800
1F00
3180
3180
3180
2300
7E00
6000
F000
ENDCHAR

STARTCHAR germandbls
ENCODING 223
SWIDTH 660 0
DWIDTH 10 0
BBX 12 14 -2 -4
BITMAP
01E0
0370
0330
0E60
06E0
0E70
0C30
0C30
0DE0
1CC0
1800
1800
D800
F000
ENDCHAR

STARTCHAR agrave
ENCODING 224
SWIDTH 680 0
DWIDTH 10 0
BBX 9 11 1 0
BITMAP
3000
1800
0400
0000
3D00
7700
E300
C600
C600
EE80
7700
ENDCHAR

STARTCHAR aacute
ENCODING 225
SWIDTH 680 0
DWIDTH 10 0
BBX 9 11 1 0
BITMAP
0300
0600
0800
0000
3D00
7700
E300
C600
C600
EE80
7700
ENDCHAR

STARTCHAR acircumflex
ENCODING 226
SWIDTH 680 0
DWIDTH 10 0
BBX 9 11 1 0
BITMAP
0800
1C00
2200
0000
3D00
7700
E300
C600
C600
EE80
7700
ENDCHAR

STARTCHAR atilde
ENCODING 227
SWIDTH 680 0
DWIDTH 10 0
BBX 9 10 1 0
BITMAP
0D00
1600
0000
3D00
7700
E300
C600
C600
EE80
7700
ENDCHAR

STARTCHAR adieresis
ENCODING 228
SWIDTH 680 0
DWIDTH 10 0
BBX 9 9 1 0
BITMAP
3600
0000
3D00
7700
E300
C600
C600
EE80
7700
ENDCHAR

STARTCHAR aring
ENCODING 229
SWIDTH 680 0
DWIDTH 10 0
BBX 9 11 1 0
BITMAP
0C00
1200
1200
0C00
3D00
7700
E300
C600
C600
EE80
7700
ENDCHAR

STARTCHAR ae
ENCODING 230
SWIDTH 880 0
DWIDTH 13 0
BBX 12 7 1 0
BITMAP
3DE0
6FB0
0730
7FE0
C600
CF30
7BE0
ENDCHAR

STARTCHAR ccedilla
ENCODING 231
SWIDTH 560 0
DWIDTH 8 0
BBX 7 10 1 -3
BITMAP
3C
76
E6
C0
C2
C6
7C
10
98
70
ENDCHAR

STARTCHAR egrave
ENCODING 232
SWIDTH 560 0
DWIDTH 8 0
BBX 7 11 1 0
BITMAP
60
30
08
00
3C
76
E6
FC
C0
C6
7C
ENDCHAR

STARTCHAR eacute
ENCODING 233
SWIDTH 560 0
DWIDTH 8 0
BBX 7 11 1 0
BITMAP
06
0C
10
00
3C
76
E6
FC
C0
C6
7C
ENDCHAR

STARTCHAR ecircumflex
ENCODING 234
SWIDTH 560 0
DWIDTH 8 0
BBX 7 11 1 0
BITMAP
08
1C
22
00
3C
76
E6
FC
C0
C6
7C
ENDCHAR

STARTCHAR edieresis
ENCODING 235
SWIDTH 560 0
DWIDTH 8 0
BBX 7 9 1 0
BITMAP
36
00
3C
76
E6
FC
C0
C6
7C
ENDCHAR

STARTCHAR igrave
ENCODING 236
SWIDTH 380 0
DWIDTH 5 0
BBX 4 11 1 0
BITMAP
C0
60
10
00
30
F0
60
60
E0
D0
E0
ENDCHAR

STARTCHAR iacute
ENCODING 237
SWIDTH 380 0
DWIDTH 5 0
BBX 6 11 1 0
BITMAP
0C
18
20
00
30
F0
60
60
E0
D0
E0
ENDCHAR

STARTCHAR icircumflex
ENCODING 238
SWIDTH 380 0
DWIDTH 5 0
BBX 5 11 1 0
BITMAP
20
70
88
00
30
F0
60
60
E0
D0
E0
ENDCHAR

STARTCHAR idieresis
ENCODING 239
SWIDTH 380 0
DWIDTH 5 0
BBX 5 9 1 0
BITMAP
D8
00
30
F0
60
60
E0
D0
E0
ENDCHAR

STARTCHAR eth
ENCODING 240
SWIDTH 600 0
DWIDTH 9 0
BBX 8 11 1 0
BITMAP
36
18
6C
06
3E
73
E3
C3
C7
CE
7C
ENDCHAR

STARTCHAR ntilde
ENCODING 241
SWIDTH 680 0
DWIDTH 10 0
BBX 9 10 1 0
BITMAP
0D00
1600
0000
3700
F980
7380
6300
E600
C680
C700
ENDCHAR

STARTCHAR ograve
ENCODING 242
SWIDTH 600 0
DWIDTH 9 0
BBX 8 11 1 0
BITMAP
30
18
04
00
3E
73
E3
C3
C7
CE
7C
ENDCHAR

STARTCHAR oacute
ENCODING 243
SWIDTH 600 0
DWIDTH 9 0
BBX 8 11 1 0
BITMAP
06
0C
10
00
3E
73
E3
C3
C7
CE
7C
ENDCHAR

STARTCHAR ocircumflex
ENCODING 244
SWIDTH 600 0
DWIDTH 9 0
BBX 8 11 1 0
BITMAP
08
1C
22
00
3E
73
E3
C3
C7
CE
7C
ENDCHAR

STARTCHAR otilde
ENCODING 245
SWIDTH 600 0
DWIDTH 9 0
BBX 8 10 1 0
BITMAP
0D
16
00
3E
73
E3
C3
C7
CE
7C
ENDCHAR

STARTCHAR odieresis
ENCODING 246
SWIDTH 600 0
DWIDTH 9 0
BBX 8 9 1 0
BITMAP
1B
00
3E
73
E3
C3
C7
CE
7C
ENDCHAR

STARTCHAR divide
ENCODING 247
SWIDTH 600 0
DWIDTH 9 0
BBX 7 8 1 0
BITMAP
10
10
00
FE
FE
00
10
10
ENDCHAR

STARTCHAR oslash
ENCODING 248
SWIDTH 600 0
DWIDTH 9 0
BBX 8 9 1 -1
BITMAP
01
3E
77
EB
D3
D7
EE
7C
80
ENDCHAR

STARTCHAR ugrave
ENCODING 249
SWIDTH 680 0
DWIDTH 10 0
BBX 9 11 1 0
BITMAP
1800
0C00
0200
0000
3180
F180
6300
6300
E600
CE80
F700
ENDCHAR

STARTCHAR uacute
ENCODING 250
SWIDTH 680 0
DWIDTH 10 0
BBX 9 11 1 0
BITMAP
0300
0600
0800
0000
3180
F180
6300
6300
E600
CE80
F700
ENDCHAR

STARTCHAR ucircumflex
ENCODING 251
SWIDTH 680 0
DWIDTH 10 0
BBX 9 11 1 0
BITMAP
0400
0E00
1100
0000
3180
F180
6300
6300
E600
CE80
F700
ENDCHAR

STARTCHAR udieresis
ENCODING 252
SWIDTH 680 0
DWIDTH 10 0
BBX 9 9 1 0
BITMAP
1B00
0000
3180
F180
6300
6300
E600
CE80
F700
ENDCHAR

STARTCHAR yacute
ENCODING 253
SWIDTH 600 0
DWIDTH 9 0
BBX 8 15 1 -4
BITMAP
03
06
08
00
33
F3
63
66
E6
CE
F6
0C
0C
CC
F8
ENDCHAR

STARTCHAR thorn
ENCODING 254
SWIDTH 660 0
DWIDTH 9 0
BBX 10 14 -1 -4
BITMAP
0600
1E00
0C00
0D80
0EC0
18C0
18C0
31C0
3B80
3700
3000
6000
6000
F000
ENDCHAR

STARTCHAR ydieresis
ENCODING 255
SWIDTH 600 0
DWIDTH 9 0
BBX 8 13 1 -4
BITMAP
1B
00
33
F3
63
66
E6
CE
F6
0C
0C
CC
F8
ENDCHAR
ENDFONT
